<svg xmlns="http://www.w3.org/2000/svg" fill="none" viewBox="0 0 24 24" stroke-width="1.5" stroke="currentColor" className="w-6 h-6">
  <path stroke-linecap="round" stroke-linejoin="round" d="M3 8.25V18a2.25 2.25 0 0 0 2.25 2.25h13.5A2.25 2.25 0 0 0 21 18V8.25m-18 0V6a2.25 2.25 0 0 1 2.25-2.25h13.5A2.25 2.25 0 0 1 21 6v2.25m-18 0h18M5.25 6h.008v.008H5.25V6Zm7.5 0h.008v.008h-.008V6Zm-7.5 3.75h.008v.008H5.25v-.008Zm7.5 0h.008v.008h-.008v-.008Zm-7.5 3.75h.008v.008H5.25v-.008Zm7.5 0h.008v.008h-.008v-.008Z" />
</svg>
