<svg width="40" height="40" viewBox="0 0 40 40" fill="none" xmlns="http://www.w3.org/2000/svg">
  <rect width="40" height="40" rx="8" fill="#3B82F6"/>
  <path d="M12 16C12 14.8954 12.8954 14 14 14H26C27.1046 14 28 14.8954 28 16V24C28 25.1046 27.1046 26 26 26H14C12.8954 26 12 25.1046 12 24V16Z" fill="white"/>
  <circle cx="16" cy="18" r="1.5" fill="#3B82F6"/>
  <circle cx="20" cy="18" r="1.5" fill="#3B82F6"/>
  <circle cx="24" cy="18" r="1.5" fill="#3B82F6"/>
  <path d="M16 22C16 21.4477 16.4477 21 17 21H23C23.5523 21 24 21.4477 24 22C24 22.5523 23.5523 23 23 23H17C16.4477 23 16 22.5523 16 22Z" fill="#3B82F6"/>
</svg>


